{"title":"The Eagle-AC3-XviD-BRRip 2011 TBS","uid":6460172,"size":1954985811,"categoryP":"video","categoryS":"movies","magnet":"?xt=urn:btih:c5f86bd71df26cecdf09a4a96470aa5986cc4e25&amp;dn=The+Eagle-AC3-XviD-BRRip+2011+TBS&amp;tr=udp%3A%2F%2Ftracker.openbittorrent.com%3A80&amp;tr=udp%3A%2F%2Fopen.demonii.com%3A1337&amp;tr=udp%3A%2F%2Ftracker.coppersurfer.tk%3A6969&amp;tr=udp%3A%2F%2Fexodus.desync.com%3A6969","seeders":0,"leechers":1,"uploader":"FatFreddy30","files":-1,"time":1307728586,"description":"In Roman-ruled Britain, a young Roman soldier endeavors to honor his father's memory by finding his lost legion's golden emblem...\n &lt;a href=&quot;\nhttp://www.imdb.com/title/tt1034389/&quot; rel=&quot;nofollow&quot; target=&quot;_NEW&quot;&gt;\nhttp://www.imdb.com/title/tt1034389/&lt;/a&gt;\n\nSubs: Dutch, English (srt). Hardcoded English subs for foreign parts only.\n\n\nHet is het jaar 140, 20 jaar eerder marcheerden het Negende Legioen van Rome, onder het bevel van Flavius Aquila, naar het noorden. Het keerde nooit meer terug. Flavius's zoon Marcus is vastbesloten om de geschonden reputatie van zijn vader te herstellen. Alleen begeleid door zijn slaaf Esca rijdt Marcus uit naar het noorden. Tijdens de reis beseft Marcus dat de verdwijning van zijn vader mogelijk gekoppeld is aan de mysterieuze identiteit van Esca. Het mysterie wordt steeds groter wanneer ze tegenover de krijgers van de angstaanjagende Seal Prins komen te staan...\n &lt;a href=&quot;\nhttp://www.moviemeter.nl/film/61589&quot; rel=&quot;nofollow&quot; target=&quot;_NEW&quot;&gt;\nhttp://www.moviemeter.nl/film/61589&lt;/a&gt;\n\nOndertitels: Engels, Nederlands (srt). Ingebakken Engelse subs voor enkele niet Engels gesproken delen.\n\nGeneral\nComplete name                    : The Eagle-AC3-XviD-BRRip 2011 TBS\\The Eagle-AC3-XviD-BRRip 2011.avi\nFormat                           : AVI\nFormat/Info                      : Audio Video Interleave\nFile size                        : 1.82 GiB\nDuration                         : 1h 54mn\nOverall bit rate                 : 2 283 Kbps\nWriting application              : VirtualDubMod 1.5.4.1 (build 2178/release)\nWriting library                  : VirtualDubMod build 2178/release\nSource                           : The.Eagle.2011.UNRATED.720p.BluRay.X264-AMIABLE\n\nVideo\nID                               : 0\nFormat                           : MPEG-4 Visual\nFormat profile                   : Simple@L3\nFormat settings, BVOP            : No\nFormat settings, QPel            : No\nFormat settings, GMC             : No warppoints\nFormat settings, Matrix          : Default (H.263)\nCodec ID                         : XVID\nCodec ID/Hint                    : XviD\nDuration                         : 1h 54mn\nBit rate                         : 1 826 Kbps\nWidth                            : 720 pixels\nHeight                           : 304 pixels\nDisplay aspect ratio             : 2.35:1\nFrame rate                       : 23.976 fps\nColor space                      : YUV\nChroma subsampling               : 4:2:0\nBit depth                        : 8 bits\nScan type                        : Progressive\nCompression mode                 : Lossy\nBits/(Pixel*Frame)               : 0.348\nStream size                      : 1.46 GiB (80%)\nWriting library                  : XviD 1.1.2 (UTC 2006-11-01)\n\nAudio\nID                               : 1\nFormat                           : AC-3\nFormat/Info                      : Audio Coding 3\nMode extension                   : CM (complete main)\nCodec ID                         : 2000\nDuration                         : 1h 54mn\nBit rate mode                    : Constant\nBit rate                         : 448 Kbps\nChannel(s)                       : 6 channels\nChannel positions                : Front: L C R, Side: L R, LFE\nSampling rate                    : 48.0 KHz\nBit depth                        : 16 bits\nCompression mode                 : Lossy\nStream size                      : 366 MiB (20%)\nAlignment                        : Split accross interleaves\nInterleave, duration             : 42 ms (1.00 video frame)\nInterleave, preload duration     : 500 ms\n\nThanks to Simply ReleaseS Toppers.\n\nEnjoy...\n\nTBS.","torrent":{"xt":"urn:btih:c5f86bd71df26cecdf09a4a96470aa5986cc4e25","amp;dn":"The+Eagle-AC3-XviD-BRRip+2011+TBS","amp;tr":["udp%3A%2F%2Ftracker.openbittorrent.com%3A80","udp%3A%2F%2Fopen.demonii.com%3A1337","udp%3A%2F%2Ftracker.coppersurfer.tk%3A6969","udp%3A%2F%2Fexodus.desync.com%3A6969"],"infoHash":"c5f86bd71df26cecdf09a4a96470aa5986cc4e25","infoHashBuffer":{"type":"Buffer","data":[197,248,107,215,29,242,108,236,223,9,164,169,100,112,170,89,134,204,78,37]},"announce":[],"urlList":[]}}